<svg width="24" height="24" viewBox="0 0 24 24" fill="none" xmlns="http://www.w3.org/2000/svg">
<path d="M12 3.51495C7.3416 3.51495 3.51493 7.34265 3.51493 12C3.51493 16.6584 7.34263 20.4851 12 20.4851C16.6584 20.4851 20.4851 16.6574 20.4851 12C20.4851 7.34162 16.6573 3.51495 12 3.51495ZM12 19.0787C8.09677 19.0787 4.92129 15.9032 4.92129 12C4.92129 8.09679 8.09677 4.92131 12 4.92131C15.9032 4.92131 19.0787 8.09679 19.0787 12C19.0787 15.9032 15.9032 19.0787 12 19.0787ZM23.7723 12.9604C24.0759 12.359 24.0759 11.641 23.7723 11.0396L23.4578 10.4168C23.3893 10.281 23.3654 10.1298 23.3886 9.97949L23.4951 9.29005C23.5981 8.62427 23.3762 7.94134 22.9015 7.46322L22.4101 6.96809C22.3029 6.86013 22.2334 6.72371 22.2091 6.57356L22.0974 5.88491C21.9907 5.22729 21.5768 4.6519 20.9883 4.34133C20.9883 4.34133 20.36 3.97122 20.3479 3.96503C20.2127 3.89551 20.1044 3.78727 20.0349 3.65197L19.7158 3.03158C19.415 2.44653 18.8016 2.01389 18.115 1.9025L17.4264 1.79084C17.2762 1.76646 17.1398 1.69698 17.0318 1.58987L16.5367 1.09839C16.0586 0.623788 15.3758 0.402051 14.71 0.504809L14.0205 0.611365C13.8701 0.634616 13.719 0.610661 13.5832 0.542125L12.9604 0.227708C12.359 -0.0758792 11.641 -0.0759262 11.0396 0.227708L10.4168 0.542125C10.2811 0.610614 10.13 0.634523 9.97952 0.611411L9.29007 0.504856C8.62416 0.401863 7.94137 0.623834 7.46325 1.09844L6.96807 1.58987C6.86016 1.69703 6.72374 1.76651 6.57359 1.79088L5.88489 1.90255C5.1983 2.01393 4.58489 2.44653 4.28407 3.03163L3.96506 3.65202C3.89549 3.78727 3.78725 3.89556 3.65196 3.96508L3.03151 4.28413C2.44647 4.58496 2.01382 5.19837 1.90248 5.88495L1.79077 6.57365C1.76644 6.7238 1.69692 6.86017 1.58976 6.96814L1.09837 7.46327C0.62377 7.94139 0.401892 8.62427 0.504791 9.29005L0.611394 9.97954C0.634646 10.1298 0.610691 10.281 0.542107 10.4168L0.227691 11.0396C-0.0758968 11.6409 -0.0758968 12.359 0.227691 12.9604L0.542107 13.5832C0.610644 13.7189 0.634599 13.8701 0.611394 14.0204L0.504791 14.7099C0.401892 15.3757 0.623817 16.0586 1.09837 16.5367L1.58985 17.0319C1.69701 17.1399 1.76654 17.2762 1.79087 17.4264L1.90258 18.115C2.01392 18.8017 2.44656 19.4151 3.03161 19.7159L3.652 20.0349C3.78729 20.1045 3.89554 20.2127 3.96511 20.348L4.28412 20.9685C4.58499 21.5535 5.19839 21.9861 5.88498 22.0975L6.57363 22.2092C6.72379 22.2336 6.8602 22.303 6.96812 22.4102L7.4633 22.9017C7.94151 23.3763 8.62435 23.598 9.29007 23.4952L9.97957 23.3886C10.1298 23.3654 10.2811 23.3894 10.4168 23.4579L11.0396 23.7723C11.3403 23.9241 11.6702 24 12 24C12.3299 24 12.6597 23.9241 12.9604 23.7723L13.5832 23.4579C13.719 23.3894 13.8702 23.3655 14.0205 23.3886L14.7099 23.4952C15.3757 23.598 16.0586 23.3762 16.5367 22.9016L17.0319 22.4101C17.1398 22.303 17.2762 22.2335 17.4264 22.2091L18.115 22.0974C18.7726 21.9907 19.3481 21.5769 19.6586 20.9882C19.6586 20.9882 20.0288 20.36 20.0349 20.3479C20.1045 20.2126 20.2127 20.1044 20.348 20.0348L20.9684 19.7158C21.5675 19.4078 21.9896 18.8268 22.0975 18.1618L22.2091 17.4732C22.2335 17.3231 22.303 17.1866 22.4102 17.0787C22.4176 17.0712 22.4249 17.0635 22.4319 17.0557L22.9139 16.5242C23.38 16.0467 23.5972 15.3699 23.4952 14.7099L23.3886 14.0204C23.3654 13.8701 23.3893 13.7189 23.4578 13.5831L23.7723 12.9604ZM22.5168 12.3266L22.2024 12.9494C22.0009 13.3486 21.9304 13.7933 21.9987 14.2353L22.1053 14.9248C22.1404 15.1512 22.0649 15.3835 21.9035 15.546C21.896 15.5535 21.8888 15.5612 21.8816 15.569L21.3998 16.1004C21.0916 16.4158 20.8916 16.8123 20.8209 17.2481L20.7092 17.9367C20.6725 18.1628 20.529 18.3604 20.3253 18.4651L19.7048 18.7841C19.3137 18.9853 18.9994 19.2964 18.7946 19.6849C18.7946 19.6849 18.4245 20.3131 18.4183 20.3252C18.3136 20.529 18.116 20.6725 17.8899 20.7091L17.2013 20.8208C16.7597 20.8925 16.3586 21.0969 16.0411 21.4119L15.546 21.9034C15.3834 22.0648 15.1511 22.1401 14.9248 22.1053L14.2354 21.9987C13.7933 21.9303 13.3486 22.0008 12.9493 22.2024L12.3266 22.5168C12.1221 22.6201 11.8779 22.62 11.6734 22.5168L11.0506 22.2024C10.7503 22.0508 10.4244 21.9734 10.0932 21.9734C9.98398 21.9734 9.87423 21.9817 9.76463 21.9987L9.07514 22.1053C8.84857 22.1402 8.61652 22.0648 8.45399 21.9035L7.95886 21.412C7.64144 21.097 7.2403 20.8926 6.79879 20.8209L6.11009 20.7092C5.86351 20.6692 5.63235 20.5149 5.53484 20.3253L5.21579 19.7049C5.01125 19.3072 4.6929 18.9888 4.29513 18.7842L3.67469 18.4652C3.48507 18.3677 3.33079 18.1365 3.2908 17.8899L3.17909 17.2013C3.10751 16.7598 2.90311 16.3586 2.58799 16.0412L2.09652 15.546C1.93511 15.3834 1.85968 15.1512 1.89466 14.9248L2.00121 14.2353C2.06956 13.7933 1.99915 13.3486 1.79752 12.9493L1.48311 12.3266C1.37983 12.122 1.37983 11.8779 1.48311 11.6734L1.79752 11.0506C1.9991 10.6513 2.06956 10.2066 2.00121 9.76465L1.89466 9.0752C1.85964 8.84877 1.93511 8.61654 2.09652 8.45401L2.58795 7.95887C2.90307 7.64141 3.10751 7.24022 3.17904 6.79876L3.29075 6.11007C3.33074 5.86348 3.48502 5.63232 3.67465 5.53482L4.29504 5.21576C4.69281 5.01127 5.01116 4.69292 5.21574 4.2951L5.53475 3.67466C5.63226 3.48504 5.86347 3.33071 6.11005 3.29072L6.79875 3.17906C7.24025 3.10743 7.64139 2.90304 7.95881 2.58796L8.45394 2.09653C8.61657 1.93513 8.8488 1.85984 9.07514 1.89467L9.76463 2.00128C10.2066 2.06953 10.6513 1.99917 11.0506 1.79759L11.6734 1.48317C11.8779 1.3799 12.1221 1.37999 12.3266 1.48317L12.9493 1.79759C13.3486 1.99917 13.7932 2.06953 14.2353 2.00128L14.9248 1.89467C15.1512 1.85989 15.3834 1.93513 15.5459 2.09649L16.041 2.58796C16.3585 2.90304 16.7596 3.10748 17.2012 3.17906L17.8898 3.29072C18.1364 3.33071 18.3676 3.48504 18.4651 3.67466L18.7841 4.29506C18.9852 4.68617 19.2964 5.00054 19.6849 5.20535C19.6849 5.20535 20.3131 5.57541 20.3252 5.5816C20.5289 5.68633 20.6724 5.88388 20.7091 6.11002L20.8208 6.79867C20.8924 7.24013 21.0968 7.64132 21.4119 7.95878L21.9033 8.45391C22.0647 8.61649 22.1402 8.84868 22.1052 9.07511L21.9986 9.7646C21.9303 10.2067 22.0007 10.6514 22.2023 11.0506L22.5167 11.6734C22.6201 11.8779 22.6201 12.1221 22.5168 12.3266Z" fill="url(#paint0_linear)"/>
<defs>
<linearGradient id="paint0_linear" x1="12" y1="24" x2="12" y2="1.71661e-05" gradientUnits="userSpaceOnUse">
<stop stop-color="#FD5900"/>
<stop offset="1" stop-color="#FFDE00"/>
</linearGradient>
</defs>
</svg>
